{"title":"WWE Hell in a Cell 2013 Damien Sandow VS Kofi Kingston 720p HDTV","uid":9113123,"size":282339132,"categoryP":"video","categoryS":"hd___tv_shows","magnet":"?xt=urn:btih:7750fa277d86cf5e1c2aa2aa05739bbab3665f4c&amp;dn=WWE+Hell+in+a+Cell+2013+Damien+Sandow+VS+Kofi+Kingston+720p+HDTV&amp;tr=udp%3A%2F%2Ftracker.openbittorrent.com%3A80&amp;tr=udp%3A%2F%2Fopen.demonii.com%3A1337&amp;tr=udp%3A%2F%2Ftracker.coppersurfer.tk%3A6969&amp;tr=udp%3A%2F%2Fexodus.desync.com%3A6969","seeders":1,"leechers":0,"uploader":"RDS31","files":1,"time":1382984991,"description":"General\nFormat : MPEG-4\nFormat profile : Base Media / Version 2\nCodec ID : mp42\nFile size : 269 MiB\nDuration : 9mn 16s\nOverall bit rate : 4 056 Kbps\nWriting library : AVS \n\nVideo\nID : 1\nFormat : MPEG-4 Visual\nFormat profile : Simple@L0\nFormat settings, BVOP : No\nFormat settings, QPel : No\nFormat settings, GMC : No warppoints\nFormat settings, Matrix : Default (H.263)\nCodec ID : 20\nDuration : 9mn 16s\nBit rate mode : Constant\nBit rate : 3 863 Kbps\nNominal bit rate : 64.0 Kbps\nWidth : 1 280 pixels\nHeight : 720 pixels\nDisplay aspect ratio : 16:9\nFrame rate mode : Constant\nFrame rate : 30.000 fps\nColor space : YUV\nChroma subsampling : 4:2:0\nBit depth : 8 bits\nScan type : Progressive\nCompression mode : Lossy\nBits/(Pixel*Frame) : 0.140\nStream size : 256 MiB (95%)\nWriting library : XviD 62\nLanguage : English\nEncoded date : UTC 2013-10-27 16:33:34\nTagged date : UTC 2013-10-27 16:33:34\nmdhd_Duration : 556900\n\nAudio\nID : 2\nFormat : AAC\nFormat/Info : Advanced Audio Codec\nFormat profile : LC\nCodec ID : 40\nDuration : 9mn 16s\nBit rate mode : Constant\nBit rate : 192 Kbps\nChannel(s) : 2 channels\nChannel positions : Front: L R\nSampling rate : 48.0 KHz\nCompression mode : Lossy\nStream size : 12.6 MiB (5%)\nLanguage : English\n\nENJOY..\n","torrent":{"xt":"urn:btih:7750fa277d86cf5e1c2aa2aa05739bbab3665f4c","amp;dn":"WWE+Hell+in+a+Cell+2013+Damien+Sandow+VS+Kofi+Kingston+720p+HDTV","amp;tr":["udp%3A%2F%2Ftracker.openbittorrent.com%3A80","udp%3A%2F%2Fopen.demonii.com%3A1337","udp%3A%2F%2Ftracker.coppersurfer.tk%3A6969","udp%3A%2F%2Fexodus.desync.com%3A6969"],"infoHash":"7750fa277d86cf5e1c2aa2aa05739bbab3665f4c","infoHashBuffer":{"type":"Buffer","data":[119,80,250,39,125,134,207,94,28,42,162,170,5,115,155,186,179,102,95,76]},"announce":[],"urlList":[]}}